<svg width="633" height="623" viewBox="0 0 633 623" fill="none" xmlns="http://www.w3.org/2000/svg">
<g clip-path="url(#clip0_2001_5340)">
<path d="M481.456 2.70108C341.591 71.8031 201.726 140.916 61.8614 210.028C61.9037 222.941 61.9355 235.864 61.9778 248.776C61.9355 248.797 61.9037 248.818 61.8614 248.839C61.9037 263.198 61.9461 277.557 61.999 291.916C61.9567 291.937 61.9037 291.958 61.8614 291.979C61.9037 304.892 61.9355 317.815 61.9778 330.727C61.9355 330.748 61.9037 330.769 61.8614 330.79C62.0414 391.288 62.232 451.795 62.4226 512.293C91.7129 536.08 121.003 559.856 150.304 583.643C160.798 578.058 171.303 572.473 181.797 566.888C206.83 585.407 231.863 603.936 256.897 622.454C285.308 579.388 313.709 536.322 342.12 493.246C418.936 453.506 495.751 413.765 572.577 374.025V68.6462C542.207 46.6645 511.826 24.6828 481.456 2.70108ZM188.489 533.028L179.944 545.73H178.747C178.451 540.546 178.144 535.362 177.847 530.178C177.042 516.22 176.237 502.273 175.433 488.326C174.787 477.229 174.151 466.122 173.505 455.026C173.368 455.058 173.23 455.058 173.103 455.121L123.375 479.837L90.421 496.213L76.803 502.98V220.755L474.901 22.8985V305.124L274.952 404.496C252.587 437.743 230.233 470.979 207.868 504.226C201.408 513.823 194.949 523.431 188.489 533.028Z" fill="#AE7AFF"/>
<path d="M123.82 322.808V262.691L101.646 273.672V245.735L178.08 207.895V235.832L155.842 246.833V306.95L123.809 322.808H123.82Z" fill="#AE7AFF"/>
<path d="M123.82 322.808V262.691L101.646 273.672V245.735L178.08 207.895V235.832L155.842 246.833V306.95L123.809 322.808H123.82Z" fill="white" fill-opacity="0.8"/>
<path d="M189.538 290.269V202.205L221.571 186.347V274.411L189.538 290.269Z" fill="#AE7AFF"/>
<path d="M189.538 290.269V202.205L221.571 186.347V274.411L189.538 290.269Z" fill="white" fill-opacity="0.8"/>
<path d="M293.314 238.894C289.417 232.305 286.198 227.586 283.677 224.725C281.157 221.864 278.711 220.143 276.35 219.573C273.988 219.002 271.108 219.435 267.698 220.882V251.584L235.665 267.442V179.378L267.698 163.52V192.755C270.78 190.95 273.385 188.648 275.524 185.871C277.663 183.095 279.812 179.22 281.994 174.258C284.165 169.295 286.918 161.989 290.243 152.36L325.474 134.919C322.922 141.908 320.687 147.821 318.76 152.646C316.833 157.471 314.874 161.905 312.883 165.938C310.892 169.971 309.039 173.297 307.334 175.894C305.629 178.502 303.691 180.92 301.51 183.169C299.329 185.407 297.137 187.307 294.923 188.859C292.71 190.411 290.063 192.006 286.981 193.653V200.895C290.508 199.312 293.568 198.15 296.162 197.401C298.746 196.651 301.277 196.303 303.734 196.356C306.201 196.408 308.393 196.873 310.32 197.76C312.248 198.647 314.281 200.135 316.42 202.236C318.559 204.337 320.634 206.85 322.668 209.796C324.701 212.742 327.009 216.458 329.593 220.945L293.314 238.904V238.894Z" fill="#AE7AFF"/>
<path d="M293.314 238.894C289.417 232.305 286.198 227.586 283.677 224.725C281.157 221.864 278.711 220.143 276.35 219.573C273.988 219.002 271.108 219.435 267.698 220.882V251.584L235.665 267.442V179.378L267.698 163.52V192.755C270.78 190.95 273.385 188.648 275.524 185.871C277.663 183.095 279.812 179.22 281.994 174.258C284.165 169.295 286.918 161.989 290.243 152.36L325.474 134.919C322.922 141.908 320.687 147.821 318.76 152.646C316.833 157.471 314.874 161.905 312.883 165.938C310.892 169.971 309.039 173.297 307.334 175.894C305.629 178.502 303.691 180.92 301.51 183.169C299.329 185.407 297.137 187.307 294.923 188.859C292.71 190.411 290.063 192.006 286.981 193.653V200.895C290.508 199.312 293.568 198.15 296.162 197.401C298.746 196.651 301.277 196.303 303.734 196.356C306.201 196.408 308.393 196.873 310.32 197.76C312.248 198.647 314.281 200.135 316.42 202.236C318.559 204.337 320.634 206.85 322.668 209.796C324.701 212.742 327.009 216.458 329.593 220.945L293.314 238.904V238.894Z" fill="white" fill-opacity="0.8"/>
<path d="M330.578 191.034V171.629L374.556 149.858V169.264L330.578 191.034Z" fill="#AE7AFF"/>
<path d="M330.578 191.034V171.629L374.556 149.858V169.264L330.578 191.034Z" fill="white" fill-opacity="0.8"/>
<path d="M123.82 443.169V383.052L101.646 394.033V366.096L178.08 328.256V356.193L155.842 367.194V427.311L123.809 443.169H123.82Z" fill="#AE7AFF"/>
<path d="M123.82 443.169V383.052L101.646 394.033V366.096L178.08 328.256V356.193L155.842 367.194V427.311L123.809 443.169H123.82Z" fill="white" fill-opacity="0.8"/>
<path d="M208.694 401.149L175.56 417.556L206.047 314.404L244.168 295.527L274.655 368.493L241.521 384.9L238.503 376.443L211.712 389.704L208.694 401.149ZM217.07 365.442L233.208 357.449C231.683 352.508 230.635 348.169 230.032 344.41C229.439 340.651 229.057 335.679 228.888 329.502L221.316 333.25C221.105 339.659 220.734 345.022 220.173 349.351C219.612 353.68 218.584 359.043 217.06 365.442H217.07Z" fill="#AE7AFF"/>
<path d="M208.694 401.149L175.56 417.556L206.047 314.404L244.168 295.527L274.655 368.493L241.521 384.9L238.503 376.443L211.712 389.704L208.694 401.149ZM217.07 365.442L233.208 357.449C231.683 352.508 230.635 348.169 230.032 344.41C229.439 340.651 229.057 335.679 228.888 329.502L221.316 333.25C221.105 339.659 220.734 345.022 220.173 349.351C219.612 353.68 218.584 359.043 217.06 365.442H217.07Z" fill="white" fill-opacity="0.8"/>
<path d="M283.646 364.048V275.984L315.679 260.126V320.243L346.038 305.208V333.145L283.646 364.027V364.048Z" fill="#AE7AFF"/>
<path d="M283.646 364.048V275.984L315.679 260.126V320.243L346.038 305.208V333.145L283.646 364.027V364.048Z" fill="white" fill-opacity="0.8"/>
<path d="M414.965 299.042C411.068 292.454 407.849 287.735 405.328 284.874C402.808 282.012 400.362 280.291 398 279.721C395.639 279.151 392.759 279.584 389.349 281.031V311.733L357.316 327.591V239.527L389.349 223.669V252.904C392.43 251.099 395.035 248.797 397.175 246.02C399.314 243.244 401.463 239.369 403.645 234.407C405.815 229.444 408.569 222.138 411.894 212.509L447.125 195.067C444.573 202.057 442.338 207.969 440.411 212.794C438.484 217.619 436.525 222.054 434.534 226.087C432.543 230.12 430.69 233.446 428.996 236.043C427.291 238.651 425.353 241.069 423.171 243.317C420.99 245.556 418.798 247.456 416.585 249.008C414.372 250.56 411.724 252.154 408.643 253.802V261.044C412.169 259.461 415.229 258.299 417.824 257.55C420.408 256.8 422.938 256.452 425.395 256.504C427.863 256.557 430.055 257.022 431.982 257.909C433.909 258.795 435.942 260.284 438.081 262.385C440.22 264.486 442.296 266.999 444.329 269.945C446.362 272.89 448.671 276.607 451.255 281.094L414.975 299.053L414.965 299.042Z" fill="#AE7AFF"/>
<path d="M414.965 299.042C411.068 292.454 407.849 287.735 405.328 284.874C402.808 282.012 400.362 280.291 398 279.721C395.639 279.151 392.759 279.584 389.349 281.031V311.733L357.316 327.591V239.527L389.349 223.669V252.904C392.43 251.099 395.035 248.797 397.175 246.02C399.314 243.244 401.463 239.369 403.645 234.407C405.815 229.444 408.569 222.138 411.894 212.509L447.125 195.067C444.573 202.057 442.338 207.969 440.411 212.794C438.484 217.619 436.525 222.054 434.534 226.087C432.543 230.12 430.69 233.446 428.996 236.043C427.291 238.651 425.353 241.069 423.171 243.317C420.99 245.556 418.798 247.456 416.585 249.008C414.372 250.56 411.724 252.154 408.643 253.802V261.044C412.169 259.461 415.229 258.299 417.824 257.55C420.408 256.8 422.938 256.452 425.395 256.504C427.863 256.557 430.055 257.022 431.982 257.909C433.909 258.795 435.942 260.284 438.081 262.385C440.22 264.486 442.296 266.999 444.329 269.945C446.362 272.89 448.671 276.607 451.255 281.094L414.975 299.053L414.965 299.042Z" fill="white" fill-opacity="0.8"/>
<g clip-path="url(#clip1_2001_5340)">
<mask id="mask0_2001_5340" style="mask-type:luminance" maskUnits="userSpaceOnUse" x="76" y="14" width="90" height="90">
<path d="M165.443 14.2314L76.2477 14.4828L76.4987 103.842L165.694 103.591L165.443 14.2314Z" fill="white"/>
</mask>
<g mask="url(#mask0_2001_5340)">
<path d="M121.096 103.716C119.686 61.3915 118.628 60.3436 76.3732 59.1625C118.62 57.7498 119.666 56.6894 120.845 14.3571C122.255 56.6821 123.314 57.7301 165.568 58.9111C123.321 60.3303 122.275 61.3712 121.096 103.716Z" fill="#AE7AFF"/>
</g>
</g>
</g>
<g clip-path="url(#clip2_2001_5340)">
<mask id="mask1_2001_5340" style="mask-type:luminance" maskUnits="userSpaceOnUse" x="430" y="495" width="113" height="114">
<path d="M542.365 495.621L430.152 495.937L430.468 608.357L542.681 608.041L542.365 495.621Z" fill="white"/>
</mask>
<g mask="url(#mask1_2001_5340)">
<path d="M486.259 495.779C488.249 525.992 512.355 550.008 542.523 551.831C512.366 553.825 488.394 577.975 486.575 608.199C484.585 577.986 460.478 553.971 430.31 552.147C460.467 550.154 484.439 526.003 486.259 495.779Z" fill="#AE7AFF"/>
</g>
</g>
<defs>
<clipPath id="clip0_2001_5340">
<rect width="510.716" height="619.753" fill="white" transform="translate(61.8614 2.70108)"/>
</clipPath>
<clipPath id="clip1_2001_5340">
<rect width="89.1954" height="89.3598" fill="white" transform="matrix(0.999996 -0.00281841 0.00280805 0.999996 76.2477 14.4828)"/>
</clipPath>
<clipPath id="clip2_2001_5340">
<rect width="112.214" height="112.42" fill="white" transform="matrix(0.999996 -0.00281841 0.00280805 0.999996 430.152 495.937)"/>
</clipPath>
</defs>
</svg>
